<svg width="500pt" height="128pt" viewBox="0 0 500 128" xmlns="http://www.w3.org/2000/svg"><g fill="#a2badc"><path d="M348.3 5.3c4.8-1 9.7-4.5 14.6-2.4l7.9 2.4c-3.7 1.1-7.2 2.4-11 3.3-3.9-.7-7.6-2.2-11.5-3.3z"/><path d="M334 10c2.4-1 4.8-2 7.2-2.5 4 .8 7.9 2.3 11.9 3.3 2.2.7 4.4 1.5 6.8 1.9 5.1-1.2 10-3.1 15.2-4.6 3.5-1.6 7 .9 10.4 1.8-8.6 2.2-16.8 5.4-25.3 7.6-8.8-2.3-17.3-5.6-26.1-7.6z"/><path d="M319.8 14c3.2-1.1 6.6-2.6 10-1.5 10.1 3 20.1 6.3 30.3 9.1 10-2.5 19.8-6.2 29.8-9 3.5-1.2 7 .6 10.4 1.5-13 4.4-26.2 8.4-39.3 12.3-3-.6-6-1.7-8.9-2.5-10.8-3.3-21.6-6.4-32.4-10z"/><path d="M305.3 18.4l7.5-2.3c16 5 32 9.8 48 14.4 15.6-4.6 31-9.4 46.5-14.3l8 2.6c-17.4 5.4-35 10.6-52.3 16.1-1.7.9-3.5-.1-5.2-.5-17.4-5.6-35-10.5-52.5-16z"/><path d="M289.5 23.1c3.1-.7 6.2-2.2 9.4-2.4 5 1.4 10 3 14.9 4.5 15.5 4.5 30.8 9.3 46.3 14 1.8.7 3.6-.5 5.4-.9 18.8-6 37.7-11.6 56.6-17.5 2.7.8 5.4 1.6 8.1 2.2l.8 1.2c-14.3 4-28.4 8.7-42.6 13-5.8 2-12 3.3-17.6 5.8 2.9.3 5.7 1 8.4 1.9 18.3 5.7 36.7 11 55 16.6-3.3.8-6.8 3.2-10.3 2-19-5.9-38.1-11.3-57-17.2-2.1-.6-4.4-1.6-6.5-.8-19.7 6.3-39.5 12.1-59.1 18.3v8.7l-1 .8a34 34 0 00-8-2.3c-.1-3.4-.2-6.8 0-10.2 20.1-6.2 40.4-12.1 60.4-18.8-19.1-5-37.8-11.4-56.9-16.8l-6.3-2z"/><path d="M385.9 42c17.8-5.1 35.3-11 53-16.3l7.5 2.4c-12.5 4.5-25.5 8-38.2 12.2-.6 0-1.7.3-2.3.5l-5.4 2c16.2 4.3 32 9.9 48.2 14.2-2.5.9-5 2-7.7 2.3-4-1-7.9-2.3-11.8-3.5l-2.3-.6c-13.8-4-27.4-8.6-41.3-12.2l.3-1zM274.9 28c3.3-1.1 6.7-3.6 10.2-2L332 40.2l7 1.9c-14.5 5-29.3 9.3-44 13.7l-.7.4-8.8 2.6-.1 9.8-8-2.4c0-3.3-.3-6.6 0-9.8l3.9-1.2c14-4.4 28.1-8.6 42-13.2l-6.4-1.8c-14-4-27.8-8.9-42-12.3z"/><path d="M260.7 32l7.4-2.4c11.4 3.4 22.7 7 34.1 10.3l.6.4c.6 0 1.8.3 2.3.4 1.5.5 3 1 4.5 1.3-9.2 3.3-18.6 5.9-28 8.9-3.6 1.2-7.3 2.5-11.1 3.2-.3 3.3-.3 6.6-.2 9.9-2.7-.8-5.4-1.5-8-2.4-.2-3.2-.1-6.4-.2-9.6l32-10c-11.2-3.2-22.3-6.6-33.4-10zM414 42.9c12.1-4.5 24.8-7.7 37-11.9 3.7-1.6 7.3 1 10.8 1.8l-26 8-6.4 2.1a574 574 0 0133.7 10c-3 .7-6 2.4-9 1.7-13.5-3.7-26.6-8.5-40.2-11.7z"/><path d="M246.4 36.3c3.3-.7 6.6-2.9 9.9-1.5l24 7.2c-8.3 2.8-16.7 5.2-25.1 8l.3 9.6-8.1-2.5v-9.7c5.7-2 11.5-3.7 17.3-5.5l-5.9-1.8c-4.1-1.2-8.3-2.3-12.4-3.8zM443.2 42.9c8.4-3 17-5.5 25.6-8l8 2.3c-6 2-12 3.7-17.8 5.7 6.1 1.7 12.3 3.6 18.4 5.5-2.4.8-4.9 1.7-7.4 2.2-9-2.3-17.7-5.6-26.8-7.7z"/><path d="M228.6 41.8c5.1-1.3 10.4-4.7 15.6-2l7.2 2.2c-3.7 1-7.4 2.2-11 3.4V55c-4-1-8-2.3-11.9-3.5v-9.7zM472.5 42.9c4.7-1.2 9.6-4.7 14.5-2.6l8.4 2.6C491.6 44 488 45.5 484 46c-3.9-1-7.6-2.3-11.5-3.2zM308.1 65.8c18-5.6 36-11.2 54.2-16.5 7.7 1.8 15.1 4.6 22.8 6.6l.6.3c11.2 3.1 22.3 6.6 33.5 10-3.3.8-6.8 3.1-10.2 1.6-15.3-4.8-30.7-9.2-46-14-15.6 4.7-31 9.8-46.6 14.3-.2 3.2-.2 6.5-.1 9.8l-8.2-2.5v-9.6z"/><path d="M323.4 70c12.7-3.4 25.1-7.8 37.8-11.5 3-.8 6 .9 8.8 1.5 11.2 3.4 22.2 7.1 33.6 10l-.1 1.1c-2.7.5-5.4 2.1-8.2 1.2l-30.3-9c-1.8-.8-3.6 0-5.3.6-7.8 2.6-15.7 4.9-23.6 7.3-1.6.6-3.5.8-5 1.8-.8 3 0 6.4.3 9.5l-8.2-2.4c0-3.4 0-6.7.2-10z"/><path d="M360 68c1.5-.4 3-1.1 4.5-.7 4.5 1 8.9 2.6 13.3 3.9l12.5 3.7-7.3 2.3c-6.3-1.9-12.7-3.7-19-5.7-6 2-12.2 3.8-18.2 5.9v9.4c-2.7-.7-5.3-1.6-8-2.5.3-3.2.4-6.4.4-9.6l21.9-6.8z"/><path d="M353.1 79.2l11-3.5 12 3.6-11.6 3.6v9.6c-3.8-1.2-7.5-2.4-11.4-3.4V79z"/></g><g fill="#1c3055"><path d="M122.6 73.7a32.6 32.6 0 0120.4-6c5.7.3 11.8 1.1 16.2 5 2.4 2 3.6 4.8 4.8 7.5-4.7 1.5-9.5 2.9-14.2 4.5-1.4-2-2.6-4.5-5.1-5.3-3.6-1.3-8.7-.8-10.9 2.8-.8 2.1.8 4.3 2.7 5.1 7.3 3.3 15.5 4.6 22.4 8.7 5.5 3 7.7 10.2 5.5 16-2.1 7.6-10 11.7-17.3 12.6-7.3.8-15.3 1-22-2.8-4-2.2-6.7-6.1-8.3-10.4l14.4-5.2c1 3 2.8 6.4 6.2 7.3 3.8.8 8.9.8 11.2-2.9.4-1.9.4-4.5-1.7-5.3-8.1-4.3-18.3-4.4-25.3-10.8-6-5.4-5.1-15.9 1-20.8zM4 69.3h41.3v11.4H20.1v9.7h23.6v11.3H20.3v10.7h26v11.4H4V69.3zM56.4 69.3H83c8 0 16.4 2.7 21.7 9a29.7 29.7 0 015.4 22.7 24.2 24.2 0 01-9.8 17.2c-6 4-13.2 5.6-20.3 5.6H56.4V69.3m16.3 11.4v31.7c5 0 10.8.6 15.1-2.5 4.2-2.8 5.1-8.3 5.1-13C93.1 91.9 91.5 86 87 83c-4.2-2.9-9.5-2.4-14.3-2.3zM213.5 69.3h15.3v54.5c-6.9-.2-13.8.3-20.6-.2-2.9-4.5-5.2-9.4-7.9-14-4.2-8-9-15.6-11.9-24.2.7 12.8.2 25.6.3 38.4h-15.2V69.3H194c5 9.4 10.3 18.7 15.4 28.1 1.9 3.4 3 7 4.1 10.7-.2-13 0-25.9 0-38.8z"/></g></svg>